<?xml version="1.0" standalone="no"?><svg xmlns:xlink="http://www.w3.org/1999/xlink" xmlns="http://www.w3.org/2000/svg" viewBox="0 0 1000 800" preserveAspectRatio="xMaxYMax slice"><g transform="scale(1.3888888888888888)"><rect x="0" y="0" width="720" height="576" fill="#ffffff"/><rect x="0" y="0" width="36" height="36" fill="#ffffff"/><circle cx="9" cy="9" r="9" fill="#cbcefd"/><circle cx="27" cy="9" r="9" fill="#a2a8fb"/><circle cx="9" cy="27" r="9" fill="#ffe2a0"/><circle cx="27" cy="27" r="9" fill="#9ea4fb"/><rect x="36" y="0" width="36" height="36" fill="#ffffff"/><circle cx="45" cy="9" r="9" fill="#ffd575"/><circle cx="63" cy="9" r="9" fill="#ffe7b0"/><circle cx="45" cy="27" r="9" fill="#8991fa"/><circle cx="63" cy="27" r="9" fill="#fff3d7"/><circle cx="90" cy="18" r="18" fill="#fff2d2"/><circle cx="126" cy="18" r="18" fill="#b7bcfc"/><rect x="144" y="0" width="36" height="36" fill="#ffffff"/><circle cx="153" cy="9" r="9" fill="#ffd269"/><circle cx="171" cy="9" r="9" fill="#a2a8fb"/><circle cx="153" cy="27" r="9" fill="#8d95fa"/><circle cx="171" cy="27" r="9" fill="#ffe8b4"/><circle cx="198" cy="18" r="18" fill="#ffefca"/><circle cx="234" cy="18" r="18" fill="#ffd470"/><circle cx="270" cy="18" r="18" fill="#8f96fa"/><circle cx="306" cy="18" r="18" fill="#ffd166"/><rect x="324" y="0" width="36" height="36" fill="#ffffff"/><circle cx="333" cy="9" r="9" fill="#e7e8fe"/><circle cx="351" cy="9" r="9" fill="#fff6e2"/><circle cx="333" cy="27" r="9" fill="#ffd87e"/><circle cx="351" cy="27" r="9" fill="#ffd675"/><rect x="360" y="0" width="36" height="36" fill="#ffffff"/><circle cx="369" cy="9" r="9" fill="#ced1fd"/><circle cx="387" cy="9" r="9" fill="#c7cbfd"/><circle cx="369" cy="27" r="9" fill="#f8f9ff"/><circle cx="387" cy="27" r="9" fill="#e1e2fe"/><circle cx="414" cy="18" r="18" fill="#fff8e7"/><circle cx="450" cy="18" r="18" fill="#fffffe"/><circle cx="486" cy="18" r="18" fill="#848cfa"/><circle cx="522" cy="18" r="18" fill="#b7bcfc"/><rect x="540" y="0" width="36" height="36" fill="#ffffff"/><circle cx="549" cy="9" r="9" fill="#ffd063"/><circle cx="567" cy="9" r="9" fill="#e4e5fe"/><circle cx="549" cy="27" r="9" fill="#6f78f9"/><circle cx="567" cy="27" r="9" fill="#8b93fa"/><rect x="576" y="0" width="36" height="36" fill="#ffffff"/><circle cx="585" cy="9" r="9" fill="#fff4db"/><circle cx="603" cy="9" r="9" fill="#878ffa"/><circle cx="585" cy="27" r="9" fill="#8890fa"/><circle cx="603" cy="27" r="9" fill="#ffcc57"/><circle cx="630" cy="18" r="18" fill="#ffdb87"/><circle cx="666" cy="18" r="18" fill="#99a0fb"/><circle cx="702" cy="18" r="18" fill="#fff5df"/><rect x="0" y="36" width="36" height="36" fill="#ffffff"/><circle cx="9" cy="45" r="9" fill="#ffefca"/><circle cx="27" cy="45" r="9" fill="#fff9eb"/><circle cx="9" cy="63" r="9" fill="#ffedc3"/><circle cx="27" cy="63" r="9" fill="#acb1fc"/><rect x="36" y="36" width="36" height="36" fill="#ffffff"/><circle cx="45" cy="45" r="9" fill="#ffd165"/><circle cx="63" cy="45" r="9" fill="#fafbff"/><circle cx="45" cy="63" r="9" fill="#ffedc4"/><circle cx="63" cy="63" r="9" fill="#5964f8"/><circle cx="90" cy="54" r="18" fill="#ffe3a1"/><circle cx="126" cy="54" r="18" fill="#fffcf6"/><rect x="144" y="36" width="36" height="36" fill="#ffffff"/><circle cx="153" cy="45" r="9" fill="#ffeab9"/><circle cx="171" cy="45" r="9" fill="#6b74f9"/><circle cx="153" cy="63" r="9" fill="#d5d7fd"/><circle cx="171" cy="63" r="9" fill="#fffefc"/><rect x="180" y="36" width="36" height="36" fill="#ffffff"/><circle cx="189" cy="45" r="9" fill="#ffd26b"/><circle cx="207" cy="45" r="9" fill="#6771f9"/><circle cx="189" cy="63" r="9" fill="#6670f9"/><circle cx="207" cy="63" r="9" fill="#fdfdff"/><rect x="216" y="36" width="36" height="36" fill="#ffffff"/><circle cx="225" cy="45" r="9" fill="#6b75f9"/><circle cx="243" cy="45" r="9" fill="#ffe5a8"/><circle cx="225" cy="63" r="9" fill="#ffd269"/><circle cx="243" cy="63" r="9" fill="#747df9"/><rect x="252" y="36" width="36" height="36" fill="#ffffff"/><circle cx="261" cy="45" r="9" fill="#ffe7af"/><circle cx="279" cy="45" r="9" fill="#ffce5e"/><circle cx="261" cy="63" r="9" fill="#ffeaba"/><circle cx="279" cy="63" r="9" fill="#ffe19c"/><circle cx="306" cy="54" r="18" fill="#f2f3fe"/><circle cx="342" cy="54" r="18" fill="#ffe7b0"/><circle cx="378" cy="54" r="18" fill="#ffebbc"/><circle cx="414" cy="54" r="18" fill="#ffd676"/><circle cx="450" cy="54" r="18" fill="#e4e6fe"/><rect x="468" y="36" width="36" height="36" fill="#ffffff"/><circle cx="477" cy="45" r="9" fill="#a9affb"/><circle cx="495" cy="45" r="9" fill="#99a0fb"/><circle cx="477" cy="63" r="9" fill="#fffffe"/><circle cx="495" cy="63" r="9" fill="#6c75f9"/><circle cx="522" cy="54" r="18" fill="#ffe8b1"/><circle cx="558" cy="54" r="18" fill="#636df9"/><rect x="576" y="36" width="36" height="36" fill="#ffffff"/><circle cx="585" cy="45" r="9" fill="#eaecfe"/><circle cx="603" cy="45" r="9" fill="#b9befc"/><circle cx="585" cy="63" r="9" fill="#b1b6fc"/><circle cx="603" cy="63" r="9" fill="#ffd87d"/><circle cx="630" cy="54" r="18" fill="#ffd573"/><circle cx="666" cy="54" r="18" fill="#707af9"/><circle cx="702" cy="54" r="18" fill="#ffdc8c"/><circle cx="18" cy="90" r="18" fill="#b4b9fc"/><rect x="36" y="72" width="36" height="36" fill="#ffffff"/><circle cx="45" cy="81" r="9" fill="#ffe7b1"/><circle cx="63" cy="81" r="9" fill="#dddffe"/><circle cx="45" cy="99" r="9" fill="#c3c7fd"/><circle cx="63" cy="99" r="9" fill="#acb2fc"/><rect x="72" y="72" width="36" height="36" fill="#ffffff"/><circle cx="81" cy="81" r="9" fill="#ffecbf"/><circle cx="99" cy="81" r="9" fill="#edeefe"/><circle cx="81" cy="99" r="9" fill="#cccffd"/><circle cx="99" cy="99" r="9" fill="#b8bdfc"/><rect x="108" y="72" width="36" height="36" fill="#ffffff"/><circle cx="117" cy="81" r="9" fill="#f6f6ff"/><circle cx="135" cy="81" r="9" fill="#ffd36d"/><circle cx="117" cy="99" r="9" fill="#aab0fb"/><circle cx="135" cy="99" r="9" fill="#c9cdfd"/><circle cx="162" cy="90" r="18" fill="#f1f2fe"/><rect x="180" y="72" width="36" height="36" fill="#ffffff"/><circle cx="189" cy="81" r="9" fill="#9097fa"/><circle cx="207" cy="81" r="9" fill="#ffde92"/><circle cx="189" cy="99" r="9" fill="#d4d7fd"/><circle cx="207" cy="99" r="9" fill="#ffd982"/><rect x="216" y="72" width="36" height="36" fill="#ffffff"/><circle cx="225" cy="81" r="9" fill="#dfe1fe"/><circle cx="243" cy="81" r="9" fill="#ffe5aa"/><circle cx="225" cy="99" r="9" fill="#fffbf0"/><circle cx="243" cy="99" r="9" fill="#dbdefe"/><rect x="252" y="72" width="36" height="36" fill="#ffffff"/><circle cx="261" cy="81" r="9" fill="#b5bafc"/><circle cx="279" cy="81" r="9" fill="#ffeec8"/><circle cx="261" cy="99" r="9" fill="#9fa5fb"/><circle cx="279" cy="99" r="9" fill="#ffdf95"/><circle cx="306" cy="90" r="18" fill="#d0d3fd"/><circle cx="342" cy="90" r="18" fill="#ffdc8c"/><rect x="360" y="72" width="36" height="36" fill="#ffffff"/><circle cx="369" cy="81" r="9" fill="#ffdc8b"/><circle cx="387" cy="81" r="9" fill="#b9befc"/><circle cx="369" cy="99" r="9" fill="#999ffb"/><circle cx="387" cy="99" r="9" fill="#fff2d3"/><rect x="396" y="72" width="36" height="36" fill="#ffffff"/><circle cx="405" cy="81" r="9" fill="#adb2fc"/><circle cx="423" cy="81" r="9" fill="#ffd46f"/><circle cx="405" cy="99" r="9" fill="#e0e2fe"/><circle cx="423" cy="99" r="9" fill="#ffefcb"/><circle cx="450" cy="90" r="18" fill="#fffaee"/><circle cx="486" cy="90" r="18" fill="#838bfa"/><circle cx="522" cy="90" r="18" fill="#fffbf1"/><circle cx="558" cy="90" r="18" fill="#ffd36d"/><rect x="576" y="72" width="36" height="36" fill="#ffffff"/><circle cx="585" cy="81" r="9" fill="#727bf9"/><circle cx="603" cy="81" r="9" fill="#c3c7fd"/><circle cx="585" cy="99" r="9" fill="#fff2d4"/><circle cx="603" cy="99" r="9" fill="#b3b8fc"/><rect x="612" y="72" width="36" height="36" fill="#ffffff"/><circle cx="621" cy="81" r="9" fill="#f9faff"/><circle cx="639" cy="81" r="9" fill="#ffcf5f"/><circle cx="621" cy="99" r="9" fill="#ffe7af"/><circle cx="639" cy="99" r="9" fill="#5863f8"/><rect x="648" y="72" width="36" height="36" fill="#ffffff"/><circle cx="657" cy="81" r="9" fill="#fff5dd"/><circle cx="675" cy="81" r="9" fill="#ffebbd"/><circle cx="657" cy="99" r="9" fill="#fff8e8"/><circle cx="675" cy="99" r="9" fill="#e8e9fe"/><rect x="684" y="72" width="36" height="36" fill="#ffffff"/><circle cx="693" cy="81" r="9" fill="#fff3d7"/><circle cx="711" cy="81" r="9" fill="#ffe8b1"/><circle cx="693" cy="99" r="9" fill="#9fa6fb"/><circle cx="711" cy="99" r="9" fill="#f9f9ff"/><circle cx="18" cy="126" r="18" fill="#b3b8fc"/><circle cx="54" cy="126" r="18" fill="#939afb"/><circle cx="90" cy="126" r="18" fill="#ffedc2"/><rect x="108" y="108" width="36" height="36" fill="#ffffff"/><circle cx="117" cy="117" r="9" fill="#ced1fd"/><circle cx="135" cy="117" r="9" fill="#ffeab9"/><circle cx="117" cy="135" r="9" fill="#fff2d5"/><circle cx="135" cy="135" r="9" fill="#eceefe"/><circle cx="162" cy="126" r="18" fill="#ffda84"/><circle cx="198" cy="126" r="18" fill="#ffdd8f"/><rect x="216" y="108" width="36" height="36" fill="#ffffff"/><circle cx="225" cy="117" r="9" fill="#ffe2a0"/><circle cx="243" cy="117" r="9" fill="#ffde92"/><circle cx="225" cy="135" r="9" fill="#bfc3fc"/><circle cx="243" cy="135" r="9" fill="#ffdf93"/><rect x="252" y="108" width="36" height="36" fill="#ffffff"/><circle cx="261" cy="117" r="9" fill="#fff3d6"/><circle cx="279" cy="117" r="9" fill="#ffeec8"/><circle cx="261" cy="135" r="9" fill="#eff0fe"/><circle cx="279" cy="135" r="9" fill="#fffaee"/><circle cx="306" cy="126" r="18" fill="#ffd166"/><circle cx="342" cy="126" r="18" fill="#ffd87c"/><circle cx="378" cy="126" r="18" fill="#b2b7fc"/><rect x="396" y="108" width="36" height="36" fill="#ffffff"/><circle cx="405" cy="117" r="9" fill="#d5d8fd"/><circle cx="423" cy="117" r="9" fill="#868efa"/><circle cx="405" cy="135" r="9" fill="#cdd0fd"/><circle cx="423" cy="135" r="9" fill="#ffcc57"/><rect x="432" y="108" width="36" height="36" fill="#ffffff"/><circle cx="441" cy="117" r="9" fill="#b3b8fc"/><circle cx="459" cy="117" r="9" fill="#ffde93"/><circle cx="441" cy="135" r="9" fill="#959cfb"/><circle cx="459" cy="135" r="9" fill="#ffe5a8"/><circle cx="486" cy="126" r="18" fill="#ffd678"/><rect x="504" y="108" width="36" height="36" fill="#ffffff"/><circle cx="513" cy="117" r="9" fill="#a3a9fb"/><circle cx="531" cy="117" r="9" fill="#dee0fe"/><circle cx="513" cy="135" r="9" fill="#979efb"/><circle cx="531" cy="135" r="9" fill="#fffcf4"/><rect x="540" y="108" width="36" height="36" fill="#ffffff"/><circle cx="549" cy="117" r="9" fill="#8991fa"/><circle cx="567" cy="117" r="9" fill="#ffd87d"/><circle cx="549" cy="135" r="9" fill="#ffecbe"/><circle cx="567" cy="135" r="9" fill="#9198fa"/><rect x="576" y="108" width="36" height="36" fill="#ffffff"/><circle cx="585" cy="117" r="9" fill="#7a82f9"/><circle cx="603" cy="117" r="9" fill="#c2c6fc"/><circle cx="585" cy="135" r="9" fill="#fff7e3"/><circle cx="603" cy="135" r="9" fill="#ffeaba"/><circle cx="630" cy="126" r="18" fill="#fff1d2"/><circle cx="666" cy="126" r="18" fill="#ffdf95"/><circle cx="702" cy="126" r="18" fill="#ffd36e"/><rect x="0" y="144" width="36" height="36" fill="#ffffff"/><circle cx="9" cy="153" r="9" fill="#fff9ea"/><circle cx="27" cy="153" r="9" fill="#7982f9"/><circle cx="9" cy="171" r="9" fill="#cdd0fd"/><circle cx="27" cy="171" r="9" fill="#bbbffc"/><rect x="36" y="144" width="36" height="36" fill="#ffffff"/><circle cx="45" cy="153" r="9" fill="#9097fa"/><circle cx="63" cy="153" r="9" fill="#ffd36c"/><circle cx="45" cy="171" r="9" fill="#dee0fe"/><circle cx="63" cy="171" r="9" fill="#e6e8fe"/><circle cx="90" cy="162" r="18" fill="#d8dbfd"/><rect x="108" y="144" width="36" height="36" fill="#ffffff"/><circle cx="117" cy="153" r="9" fill="#f1f2fe"/><circle cx="135" cy="153" r="9" fill="#5a65f8"/><circle cx="117" cy="171" r="9" fill="#828afa"/><circle cx="135" cy="171" r="9" fill="#ffe29d"/><circle cx="162" cy="162" r="18" fill="#ffefcb"/><rect x="180" y="144" width="36" height="36" fill="#ffffff"/><circle cx="189" cy="153" r="9" fill="#626df9"/><circle cx="207" cy="153" r="9" fill="#ffd36b"/><circle cx="189" cy="171" r="9" fill="#969dfb"/><circle cx="207" cy="171" r="9" fill="#868efa"/><rect x="216" y="144" width="36" height="36" fill="#ffffff"/><circle cx="225" cy="153" r="9" fill="#ffcd57"/><circle cx="243" cy="153" r="9" fill="#ffd575"/><circle cx="225" cy="171" r="9" fill="#ffcc56"/><circle cx="243" cy="171" r="9" fill="#fff0cf"/><circle cx="270" cy="162" r="18" fill="#e3e5fe"/><rect x="288" y="144" width="36" height="36" fill="#ffffff"/><circle cx="297" cy="153" r="9" fill="#ffda84"/><circle cx="315" cy="153" r="9" fill="#9198fa"/><circle cx="297" cy="171" r="9" fill="#ffedc2"/><circle cx="315" cy="171" r="9" fill="#ffd980"/><circle cx="342" cy="162" r="18" fill="#8890fa"/><rect x="360" y="144" width="36" height="36" fill="#ffffff"/><circle cx="369" cy="153" r="9" fill="#ffd471"/><circle cx="387" cy="153" r="9" fill="#fff8e9"/><circle cx="369" cy="171" r="9" fill="#a9aefb"/><circle cx="387" cy="171" r="9" fill="#9097fa"/><circle cx="414" cy="162" r="18" fill="#eceefe"/><rect x="432" y="144" width="36" height="36" fill="#ffffff"/><circle cx="441" cy="153" r="9" fill="#fff3d8"/><circle cx="459" cy="153" r="9" fill="#ffe097"/><circle cx="441" cy="171" r="9" fill="#ffe4a5"/><circle cx="459" cy="171" r="9" fill="#ffe5aa"/><circle cx="486" cy="162" r="18" fill="#fffbf1"/><circle cx="522" cy="162" r="18" fill="#fff4db"/><rect x="540" y="144" width="36" height="36" fill="#ffffff"/><circle cx="549" cy="153" r="9" fill="#ffebbb"/><circle cx="567" cy="153" r="9" fill="#606af8"/><circle cx="549" cy="171" r="9" fill="#7c85fa"/><circle cx="567" cy="171" r="9" fill="#ffe099"/><rect x="576" y="144" width="36" height="36" fill="#ffffff"/><circle cx="585" cy="153" r="9" fill="#ffcf5f"/><circle cx="603" cy="153" r="9" fill="#ffe29e"/><circle cx="585" cy="171" r="9" fill="#7982f9"/><circle cx="603" cy="171" r="9" fill="#fffaf0"/><circle cx="630" cy="162" r="18" fill="#ffdd8f"/><circle cx="666" cy="162" r="18" fill="#fff8e7"/><rect x="684" y="144" width="36" height="36" fill="#ffffff"/><circle cx="693" cy="153" r="9" fill="#7e86fa"/><circle cx="711" cy="153" r="9" fill="#fefeff"/><circle cx="693" cy="171" r="9" fill="#7f87fa"/><circle cx="711" cy="171" r="9" fill="#d7dafd"/><circle cx="18" cy="198" r="18" fill="#ebecfe"/><rect x="36" y="180" width="36" height="36" fill="#ffffff"/><circle cx="45" cy="189" r="9" fill="#fffefc"/><circle cx="63" cy="189" r="9" fill="#ffe6ac"/><circle cx="45" cy="207" r="9" fill="#c2c6fc"/><circle cx="63" cy="207" r="9" fill="#ffebbb"/><rect x="72" y="180" width="36" height="36" fill="#ffffff"/><circle cx="81" cy="189" r="9" fill="#fff9ea"/><circle cx="99" cy="189" r="9" fill="#636df9"/><circle cx="81" cy="207" r="9" fill="#e4e5fe"/><circle cx="99" cy="207" r="9" fill="#8088fa"/><circle cx="126" cy="198" r="18" fill="#ffe5a7"/><circle cx="162" cy="198" r="18" fill="#ffdc8c"/><circle cx="198" cy="198" r="18" fill="#cfd2fd"/><circle cx="234" cy="198" r="18" fill="#ffdb87"/><circle cx="270" cy="198" r="18" fill="#f0f1fe"/><rect x="288" y="180" width="36" height="36" fill="#ffffff"/><circle cx="297" cy="189" r="9" fill="#5661f8"/><circle cx="315" cy="189" r="9" fill="#ffe7b0"/><circle cx="297" cy="207" r="9" fill="#fff8e9"/><circle cx="315" cy="207" r="9" fill="#ffcb52"/><circle cx="342" cy="198" r="18" fill="#c7cafd"/><rect x="360" y="180" width="36" height="36" fill="#ffffff"/><circle cx="369" cy="189" r="9" fill="#ffcf61"/><circle cx="387" cy="189" r="9" fill="#ffdc8a"/><circle cx="369" cy="207" r="9" fill="#828afa"/><circle cx="387" cy="207" r="9" fill="#ffd779"/><circle cx="414" cy="198" r="18" fill="#f8f9ff"/><rect x="432" y="180" width="36" height="36" fill="#ffffff"/><circle cx="441" cy="189" r="9" fill="#ffe19b"/><circle cx="459" cy="189" r="9" fill="#ffd46f"/><circle cx="441" cy="207" r="9" fill="#757ef9"/><circle cx="459" cy="207" r="9" fill="#ffda85"/><rect x="468" y="180" width="36" height="36" fill="#ffffff"/><circle cx="477" cy="189" r="9" fill="#ffd36b"/><circle cx="495" cy="189" r="9" fill="#ffeab9"/><circle cx="477" cy="207" r="9" fill="#fffdf7"/><circle cx="495" cy="207" r="9" fill="#8c93fa"/><circle cx="522" cy="198" r="18" fill="#ffe7b0"/><circle cx="558" cy="198" r="18" fill="#fffdfa"/><circle cx="594" cy="198" r="18" fill="#f7f8ff"/><circle cx="630" cy="198" r="18" fill="#8f96fa"/><rect x="648" y="180" width="36" height="36" fill="#ffffff"/><circle cx="657" cy="189" r="9" fill="#acb1fc"/><circle cx="675" cy="189" r="9" fill="#a5abfb"/><circle cx="657" cy="207" r="9" fill="#8e95fa"/><circle cx="675" cy="207" r="9" fill="#fffefb"/><circle cx="702" cy="198" r="18" fill="#dddffe"/><rect x="0" y="216" width="36" height="36" fill="#ffffff"/><circle cx="9" cy="225" r="9" fill="#eeeffe"/><circle cx="27" cy="225" r="9" fill="#fff2d5"/><circle cx="9" cy="243" r="9" fill="#f1f2fe"/><circle cx="27" cy="243" r="9" fill="#e7e8fe"/><circle cx="54" cy="234" r="18" fill="#ffe5a8"/><circle cx="90" cy="234" r="18" fill="#dddffe"/><circle cx="126" cy="234" r="18" fill="#b0b5fc"/><circle cx="162" cy="234" r="18" fill="#b5bafc"/><rect x="180" y="216" width="36" height="36" fill="#ffffff"/><circle cx="189" cy="225" r="9" fill="#fff6e1"/><circle cx="207" cy="225" r="9" fill="#ffcf61"/><circle cx="189" cy="243" r="9" fill="#ffd980"/><circle cx="207" cy="243" r="9" fill="#fff6e3"/><rect x="216" y="216" width="36" height="36" fill="#ffffff"/><circle cx="225" cy="225" r="9" fill="#ffeaba"/><circle cx="243" cy="225" r="9" fill="#fff0ce"/><circle cx="225" cy="243" r="9" fill="#ffd46f"/><circle cx="243" cy="243" r="9" fill="#ffe8b1"/><rect x="252" y="216" width="36" height="36" fill="#ffffff"/><circle cx="261" cy="225" r="9" fill="#ffd678"/><circle cx="279" cy="225" r="9" fill="#fff0ce"/><circle cx="261" cy="243" r="9" fill="#6670f9"/><circle cx="279" cy="243" r="9" fill="#ffe6ad"/><circle cx="306" cy="234" r="18" fill="#ffd779"/><rect x="324" y="216" width="36" height="36" fill="#ffffff"/><circle cx="333" cy="225" r="9" fill="#ffce5e"/><circle cx="351" cy="225" r="9" fill="#fff6e3"/><circle cx="333" cy="243" r="9" fill="#717af9"/><circle cx="351" cy="243" r="9" fill="#9ba1fb"/><circle cx="378" cy="234" r="18" fill="#ffdf96"/><circle cx="414" cy="234" r="18" fill="#8c93fa"/><circle cx="450" cy="234" r="18" fill="#ced2fd"/><circle cx="486" cy="234" r="18" fill="#f4f5ff"/><rect x="504" y="216" width="36" height="36" fill="#ffffff"/><circle cx="513" cy="225" r="9" fill="#ffeab9"/><circle cx="531" cy="225" r="9" fill="#959cfb"/><circle cx="513" cy="243" r="9" fill="#ffd77a"/><circle cx="531" cy="243" r="9" fill="#ffd471"/><circle cx="558" cy="234" r="18" fill="#d7dafd"/><rect x="576" y="216" width="36" height="36" fill="#ffffff"/><circle cx="585" cy="225" r="9" fill="#6670f9"/><circle cx="603" cy="225" r="9" fill="#ffefcb"/><circle cx="585" cy="243" r="9" fill="#ffde92"/><circle cx="603" cy="243" r="9" fill="#8089fa"/><rect x="612" y="216" width="36" height="36" fill="#ffffff"/><circle cx="621" cy="225" r="9" fill="#ffd676"/><circle cx="639" cy="225" r="9" fill="#ffdf94"/><circle cx="621" cy="243" r="9" fill="#cbcefd"/><circle cx="639" cy="243" r="9" fill="#ffe3a2"/><circle cx="666" cy="234" r="18" fill="#ffd87e"/><rect x="684" y="216" width="36" height="36" fill="#ffffff"/><circle cx="693" cy="225" r="9" fill="#ffe9b4"/><circle cx="711" cy="225" r="9" fill="#ffd573"/><circle cx="693" cy="243" r="9" fill="#ffebbd"/><circle cx="711" cy="243" r="9" fill="#9ea4fb"/><rect x="0" y="252" width="36" height="36" fill="#ffffff"/><circle cx="9" cy="261" r="9" fill="#ffcd5b"/><circle cx="27" cy="261" r="9" fill="#fff5dd"/><circle cx="9" cy="279" r="9" fill="#ffedc2"/><circle cx="27" cy="279" r="9" fill="#6670f9"/><circle cx="54" cy="270" r="18" fill="#5d67f8"/><rect x="72" y="252" width="36" height="36" fill="#ffffff"/><circle cx="81" cy="261" r="9" fill="#e5e7fe"/><circle cx="99" cy="261" r="9" fill="#878efa"/><circle cx="81" cy="279" r="9" fill="#9ea4fb"/><circle cx="99" cy="279" r="9" fill="#979efb"/><circle cx="126" cy="270" r="18" fill="#ffda83"/><rect x="144" y="252" width="36" height="36" fill="#ffffff"/><circle cx="153" cy="261" r="9" fill="#ffd167"/><circle cx="171" cy="261" r="9" fill="#ffdb86"/><circle cx="153" cy="279" r="9" fill="#fff0cd"/><circle cx="171" cy="279" r="9" fill="#b2b7fc"/><rect x="180" y="252" width="36" height="36" fill="#ffffff"/><circle cx="189" cy="261" r="9" fill="#b9befc"/><circle cx="207" cy="261" r="9" fill="#ffd167"/><circle cx="189" cy="279" r="9" fill="#a3a9fb"/><circle cx="207" cy="279" r="9" fill="#9ba1fb"/><rect x="216" y="252" width="36" height="36" fill="#ffffff"/><circle cx="225" cy="261" r="9" fill="#9da4fb"/><circle cx="243" cy="261" r="9" fill="#ffd166"/><circle cx="225" cy="279" r="9" fill="#fff8e8"/><circle cx="243" cy="279" r="9" fill="#6972f9"/><rect x="252" y="252" width="36" height="36" fill="#ffffff"/><circle cx="261" cy="261" r="9" fill="#747df9"/><circle cx="279" cy="261" r="9" fill="#fffcf5"/><circle cx="261" cy="279" r="9" fill="#ffe8b4"/><circle cx="279" cy="279" r="9" fill="#6e77f9"/><rect x="288" y="252" width="36" height="36" fill="#ffffff"/><circle cx="297" cy="261" r="9" fill="#b2b7fc"/><circle cx="315" cy="261" r="9" fill="#ffdf96"/><circle cx="297" cy="279" r="9" fill="#ffdb89"/><circle cx="315" cy="279" r="9" fill="#ffcf5f"/><circle cx="342" cy="270" r="18" fill="#ffecbf"/><circle cx="378" cy="270" r="18" fill="#989ffb"/><rect x="396" y="252" width="36" height="36" fill="#ffffff"/><circle cx="405" cy="261" r="9" fill="#99a0fb"/><circle cx="423" cy="261" r="9" fill="#5963f8"/><circle cx="405" cy="279" r="9" fill="#e2e4fe"/><circle cx="423" cy="279" r="9" fill="#5964f8"/><rect x="432" y="252" width="36" height="36" fill="#ffffff"/><circle cx="441" cy="261" r="9" fill="#fffefc"/><circle cx="459" cy="261" r="9" fill="#e1e3fe"/><circle cx="441" cy="279" r="9" fill="#eaecfe"/><circle cx="459" cy="279" r="9" fill="#99a0fb"/><circle cx="486" cy="270" r="18" fill="#dcdefe"/><circle cx="522" cy="270" r="18" fill="#e6e7fe"/><circle cx="558" cy="270" r="18" fill="#fff1d0"/><circle cx="594" cy="270" r="18" fill="#a9aefb"/><circle cx="630" cy="270" r="18" fill="#f3f4ff"/><rect x="648" y="252" width="36" height="36" fill="#ffffff"/><circle cx="657" cy="261" r="9" fill="#9da3fb"/><circle cx="675" cy="261" r="9" fill="#ecedfe"/><circle cx="657" cy="279" r="9" fill="#7b84fa"/><circle cx="675" cy="279" r="9" fill="#ffdf94"/><circle cx="702" cy="270" r="18" fill="#ffe2a0"/><circle cx="18" cy="306" r="18" fill="#a3a9fb"/><rect x="36" y="288" width="36" height="36" fill="#ffffff"/><circle cx="45" cy="297" r="9" fill="#fffcf6"/><circle cx="63" cy="297" r="9" fill="#fffbf3"/><circle cx="45" cy="315" r="9" fill="#ffe4a6"/><circle cx="63" cy="315" r="9" fill="#cdd0fd"/><circle cx="90" cy="306" r="18" fill="#8d94fa"/><rect x="108" y="288" width="36" height="36" fill="#ffffff"/><circle cx="117" cy="297" r="9" fill="#f4f5ff"/><circle cx="135" cy="297" r="9" fill="#ffecbf"/><circle cx="117" cy="315" r="9" fill="#ffd87e"/><circle cx="135" cy="315" r="9" fill="#f5f6ff"/><rect x="144" y="288" width="36" height="36" fill="#ffffff"/><circle cx="153" cy="297" r="9" fill="#626cf8"/><circle cx="171" cy="297" r="9" fill="#9aa0fb"/><circle cx="153" cy="315" r="9" fill="#ffde90"/><circle cx="171" cy="315" r="9" fill="#fff2d5"/><rect x="180" y="288" width="36" height="36" fill="#ffffff"/><circle cx="189" cy="297" r="9" fill="#d2d5fd"/><circle cx="207" cy="297" r="9" fill="#d3d5fd"/><circle cx="189" cy="315" r="9" fill="#8b92fa"/><circle cx="207" cy="315" r="9" fill="#d4d6fd"/><circle cx="234" cy="306" r="18" fill="#7881f9"/><circle cx="270" cy="306" r="18" fill="#636df9"/><rect x="288" y="288" width="36" height="36" fill="#ffffff"/><circle cx="297" cy="297" r="9" fill="#b1b6fc"/><circle cx="315" cy="297" r="9" fill="#ffdf94"/><circle cx="297" cy="315" r="9" fill="#fdfdff"/><circle cx="315" cy="315" r="9" fill="#f0f1fe"/><circle cx="342" cy="306" r="18" fill="#fff5dc"/><rect x="360" y="288" width="36" height="36" fill="#ffffff"/><circle cx="369" cy="297" r="9" fill="#aab0fb"/><circle cx="387" cy="297" r="9" fill="#ffdb89"/><circle cx="369" cy="315" r="9" fill="#ffe29e"/><circle cx="387" cy="315" r="9" fill="#ffe6ac"/><circle cx="414" cy="306" r="18" fill="#9299fa"/><circle cx="450" cy="306" r="18" fill="#ebecfe"/><circle cx="486" cy="306" r="18" fill="#ffe3a3"/><rect x="504" y="288" width="36" height="36" fill="#ffffff"/><circle cx="513" cy="297" r="9" fill="#ffcc56"/><circle cx="531" cy="297" r="9" fill="#7f88fa"/><circle cx="513" cy="315" r="9" fill="#5e69f8"/><circle cx="531" cy="315" r="9" fill="#eceefe"/><circle cx="558" cy="306" r="18" fill="#6c75f9"/><rect x="576" y="288" width="36" height="36" fill="#ffffff"/><circle cx="585" cy="297" r="9" fill="#ffd165"/><circle cx="603" cy="297" r="9" fill="#757ef9"/><circle cx="585" cy="315" r="9" fill="#6d77f9"/><circle cx="603" cy="315" r="9" fill="#9aa0fb"/><circle cx="630" cy="306" r="18" fill="#fff3d7"/><circle cx="666" cy="306" r="18" fill="#ffe5a9"/><rect x="684" y="288" width="36" height="36" fill="#ffffff"/><circle cx="693" cy="297" r="9" fill="#ffecbf"/><circle cx="711" cy="297" r="9" fill="#e5e6fe"/><circle cx="693" cy="315" r="9" fill="#ffdd8e"/><circle cx="711" cy="315" r="9" fill="#ffd87d"/><rect x="0" y="324" width="36" height="36" fill="#ffffff"/><circle cx="9" cy="333" r="9" fill="#e6e8fe"/><circle cx="27" cy="333" r="9" fill="#ffcd5a"/><circle cx="9" cy="351" r="9" fill="#fff2d3"/><circle cx="27" cy="351" r="9" fill="#636ef9"/><rect x="36" y="324" width="36" height="36" fill="#ffffff"/><circle cx="45" cy="333" r="9" fill="#f7f8ff"/><circle cx="63" cy="333" r="9" fill="#969dfb"/><circle cx="45" cy="351" r="9" fill="#ced1fd"/><circle cx="63" cy="351" r="9" fill="#cbcffd"/><circle cx="90" cy="342" r="18" fill="#ffcd59"/><rect x="108" y="324" width="36" height="36" fill="#ffffff"/><circle cx="117" cy="333" r="9" fill="#fffaef"/><circle cx="135" cy="333" r="9" fill="#ffcf5e"/><circle cx="117" cy="351" r="9" fill="#ffe099"/><circle cx="135" cy="351" r="9" fill="#f1f2fe"/><rect x="144" y="324" width="36" height="36" fill="#ffffff"/><circle cx="153" cy="333" r="9" fill="#fffefc"/><circle cx="171" cy="333" r="9" fill="#ffe8b3"/><circle cx="153" cy="351" r="9" fill="#a2a8fb"/><circle cx="171" cy="351" r="9" fill="#9198fa"/><rect x="180" y="324" width="36" height="36" fill="#ffffff"/><circle cx="189" cy="333" r="9" fill="#5a65f8"/><circle cx="207" cy="333" r="9" fill="#d7d9fd"/><circle cx="189" cy="351" r="9" fill="#b0b5fc"/><circle cx="207" cy="351" r="9" fill="#ffd97f"/><rect x="216" y="324" width="36" height="36" fill="#ffffff"/><circle cx="225" cy="333" r="9" fill="#ffcb53"/><circle cx="243" cy="333" r="9" fill="#ffe6ad"/><circle cx="225" cy="351" r="9" fill="#7d86fa"/><circle cx="243" cy="351" r="9" fill="#c0c4fc"/><rect x="252" y="324" width="36" height="36" fill="#ffffff"/><circle cx="261" cy="333" r="9" fill="#ffdf95"/><circle cx="279" cy="333" r="9" fill="#6e78f9"/><circle cx="261" cy="351" r="9" fill="#ffcd5a"/><circle cx="279" cy="351" r="9" fill="#e1e3fe"/><rect x="288" y="324" width="36" height="36" fill="#ffffff"/><circle cx="297" cy="333" r="9" fill="#eff0fe"/><circle cx="315" cy="333" r="9" fill="#ffcd5a"/><circle cx="297" cy="351" r="9" fill="#ffebbe"/><circle cx="315" cy="351" r="9" fill="#ffe3a1"/><rect x="324" y="324" width="36" height="36" fill="#ffffff"/><circle cx="333" cy="333" r="9" fill="#878efa"/><circle cx="351" cy="333" r="9" fill="#ffd46f"/><circle cx="333" cy="351" r="9" fill="#ffe5a8"/><circle cx="351" cy="351" r="9" fill="#6872f9"/><circle cx="378" cy="342" r="18" fill="#fffdf8"/><circle cx="414" cy="342" r="18" fill="#ffe8b4"/><circle cx="450" cy="342" r="18" fill="#fff7e5"/><circle cx="486" cy="342" r="18" fill="#ffe7ae"/><rect x="504" y="324" width="36" height="36" fill="#ffffff"/><circle cx="513" cy="333" r="9" fill="#fff8e7"/><circle cx="531" cy="333" r="9" fill="#ffca50"/><circle cx="513" cy="351" r="9" fill="#e1e3fe"/><circle cx="531" cy="351" r="9" fill="#ffe9b6"/><rect x="540" y="324" width="36" height="36" fill="#ffffff"/><circle cx="549" cy="333" r="9" fill="#999ffb"/><circle cx="567" cy="333" r="9" fill="#ffd166"/><circle cx="549" cy="351" r="9" fill="#7f87fa"/><circle cx="567" cy="351" r="9" fill="#dfe1fe"/><circle cx="594" cy="342" r="18" fill="#949bfb"/><circle cx="630" cy="342" r="18" fill="#ffcd58"/><rect x="648" y="324" width="36" height="36" fill="#ffffff"/><circle cx="657" cy="333" r="9" fill="#dddffe"/><circle cx="675" cy="333" r="9" fill="#6e78f9"/><circle cx="657" cy="351" r="9" fill="#ffd36e"/><circle cx="675" cy="351" r="9" fill="#a8adfb"/><rect x="684" y="324" width="36" height="36" fill="#ffffff"/><circle cx="693" cy="333" r="9" fill="#ffce5e"/><circle cx="711" cy="333" r="9" fill="#fff8e7"/><circle cx="693" cy="351" r="9" fill="#d5d8fd"/><circle cx="711" cy="351" r="9" fill="#737cf9"/><rect x="0" y="360" width="36" height="36" fill="#ffffff"/><circle cx="9" cy="369" r="9" fill="#adb2fc"/><circle cx="27" cy="369" r="9" fill="#ffd46f"/><circle cx="9" cy="387" r="9" fill="#ffd062"/><circle cx="27" cy="387" r="9" fill="#ffefcb"/><rect x="36" y="360" width="36" height="36" fill="#ffffff"/><circle cx="45" cy="369" r="9" fill="#9da3fb"/><circle cx="63" cy="369" r="9" fill="#ffeec5"/><circle cx="45" cy="387" r="9" fill="#fff3d6"/><circle cx="63" cy="387" r="9" fill="#828afa"/><rect x="72" y="360" width="36" height="36" fill="#ffffff"/><circle cx="81" cy="369" r="9" fill="#e2e3fe"/><circle cx="99" cy="369" r="9" fill="#ffd981"/><circle cx="81" cy="387" r="9" fill="#a8aefb"/><circle cx="99" cy="387" r="9" fill="#6771f9"/><rect x="108" y="360" width="36" height="36" fill="#ffffff"/><circle cx="117" cy="369" r="9" fill="#c7cbfd"/><circle cx="135" cy="369" r="9" fill="#ffd573"/><circle cx="117" cy="387" r="9" fill="#fff5dd"/><circle cx="135" cy="387" r="9" fill="#9299fa"/><circle cx="162" cy="378" r="18" fill="#99a0fb"/><circle cx="198" cy="378" r="18" fill="#ffe5a7"/><rect x="216" y="360" width="36" height="36" fill="#ffffff"/><circle cx="225" cy="369" r="9" fill="#969dfb"/><circle cx="243" cy="369" r="9" fill="#7881f9"/><circle cx="225" cy="387" r="9" fill="#6973f9"/><circle cx="243" cy="387" r="9" fill="#ffe19c"/><rect x="252" y="360" width="36" height="36" fill="#ffffff"/><circle cx="261" cy="369" r="9" fill="#ffeaba"/><circle cx="279" cy="369" r="9" fill="#fff5de"/><circle cx="261" cy="387" r="9" fill="#ffd574"/><circle cx="279" cy="387" r="9" fill="#fffbf1"/><circle cx="306" cy="378" r="18" fill="#cfd2fd"/><rect x="324" y="360" width="36" height="36" fill="#ffffff"/><circle cx="333" cy="369" r="9" fill="#bcc0fc"/><circle cx="351" cy="369" r="9" fill="#f4f4ff"/><circle cx="333" cy="387" r="9" fill="#ffe29e"/><circle cx="351" cy="387" r="9" fill="#b2b7fc"/><circle cx="378" cy="378" r="18" fill="#fffefb"/><circle cx="414" cy="378" r="18" fill="#ffda85"/><rect x="432" y="360" width="36" height="36" fill="#ffffff"/><circle cx="441" cy="369" r="9" fill="#ffe29d"/><circle cx="459" cy="369" r="9" fill="#ffdd8e"/><circle cx="441" cy="387" r="9" fill="#ffefc9"/><circle cx="459" cy="387" r="9" fill="#f7f7ff"/><rect x="468" y="360" width="36" height="36" fill="#ffffff"/><circle cx="477" cy="369" r="9" fill="#ffe7ae"/><circle cx="495" cy="369" r="9" fill="#5964f8"/><circle cx="477" cy="387" r="9" fill="#d4d7fd"/><circle cx="495" cy="387" r="9" fill="#7982f9"/><rect x="504" y="360" width="36" height="36" fill="#ffffff"/><circle cx="513" cy="369" r="9" fill="#7d86fa"/><circle cx="531" cy="369" r="9" fill="#fff8e7"/><circle cx="513" cy="387" r="9" fill="#7982f9"/><circle cx="531" cy="387" r="9" fill="#6b75f9"/><rect x="540" y="360" width="36" height="36" fill="#ffffff"/><circle cx="549" cy="369" r="9" fill="#ffd064"/><circle cx="567" cy="369" r="9" fill="#8991fa"/><circle cx="549" cy="387" r="9" fill="#fffdf9"/><circle cx="567" cy="387" r="9" fill="#ffe098"/><rect x="576" y="360" width="36" height="36" fill="#ffffff"/><circle cx="585" cy="369" r="9" fill="#fff3d8"/><circle cx="603" cy="369" r="9" fill="#ffd26a"/><circle cx="585" cy="387" r="9" fill="#d1d4fd"/><circle cx="603" cy="387" r="9" fill="#fffaee"/><circle cx="630" cy="378" r="18" fill="#fff1d1"/><circle cx="666" cy="378" r="18" fill="#fff1d0"/><circle cx="702" cy="378" r="18" fill="#9097fa"/><circle cx="18" cy="414" r="18" fill="#f5f6ff"/><rect x="36" y="396" width="36" height="36" fill="#ffffff"/><circle cx="45" cy="405" r="9" fill="#acb1fc"/><circle cx="63" cy="405" r="9" fill="#d7d9fd"/><circle cx="45" cy="423" r="9" fill="#ffd678"/><circle cx="63" cy="423" r="9" fill="#dfe1fe"/><rect x="72" y="396" width="36" height="36" fill="#ffffff"/><circle cx="81" cy="405" r="9" fill="#fff7e6"/><circle cx="99" cy="405" r="9" fill="#a4aafb"/><circle cx="81" cy="423" r="9" fill="#ffeab9"/><circle cx="99" cy="423" r="9" fill="#a4aafb"/><rect x="108" y="396" width="36" height="36" fill="#ffffff"/><circle cx="117" cy="405" r="9" fill="#5762f8"/><circle cx="135" cy="405" r="9" fill="#ced2fd"/><circle cx="117" cy="423" r="9" fill="#ffe8b3"/><circle cx="135" cy="423" r="9" fill="#ffd26b"/><circle cx="162" cy="414" r="18" fill="#9097fa"/><rect x="180" y="396" width="36" height="36" fill="#ffffff"/><circle cx="189" cy="405" r="9" fill="#d6d9fd"/><circle cx="207" cy="405" r="9" fill="#adb2fc"/><circle cx="189" cy="423" r="9" fill="#ffe5a9"/><circle cx="207" cy="423" r="9" fill="#a8aefb"/><rect x="216" y="396" width="36" height="36" fill="#ffffff"/><circle cx="225" cy="405" r="9" fill="#ffefca"/><circle cx="243" cy="405" r="9" fill="#c4c8fd"/><circle cx="225" cy="423" r="9" fill="#ffefca"/><circle cx="243" cy="423" r="9" fill="#bbbffc"/><rect x="252" y="396" width="36" height="36" fill="#ffffff"/><circle cx="261" cy="405" r="9" fill="#cfd2fd"/><circle cx="279" cy="405" r="9" fill="#a0a7fb"/><circle cx="261" cy="423" r="9" fill="#ffeec5"/><circle cx="279" cy="423" r="9" fill="#757ef9"/><circle cx="306" cy="414" r="18" fill="#636ef9"/><circle cx="342" cy="414" r="18" fill="#fff5dd"/><rect x="360" y="396" width="36" height="36" fill="#ffffff"/><circle cx="369" cy="405" r="9" fill="#ffdb88"/><circle cx="387" cy="405" r="9" fill="#ffd46f"/><circle cx="369" cy="423" r="9" fill="#a7adfb"/><circle cx="387" cy="423" r="9" fill="#ffe29f"/><circle cx="414" cy="414" r="18" fill="#5964f8"/><circle cx="450" cy="414" r="18" fill="#ffdf94"/><rect x="468" y="396" width="36" height="36" fill="#ffffff"/><circle cx="477" cy="405" r="9" fill="#fffefa"/><circle cx="495" cy="405" r="9" fill="#ced1fd"/><circle cx="477" cy="423" r="9" fill="#6771f9"/><circle cx="495" cy="423" r="9" fill="#d7d9fd"/><circle cx="522" cy="414" r="18" fill="#ffcb51"/><rect x="540" y="396" width="36" height="36" fill="#ffffff"/><circle cx="549" cy="405" r="9" fill="#ffce5d"/><circle cx="567" cy="405" r="9" fill="#ffd36c"/><circle cx="549" cy="423" r="9" fill="#ffd166"/><circle cx="567" cy="423" r="9" fill="#fffcf5"/><circle cx="594" cy="414" r="18" fill="#e3e5fe"/><circle cx="630" cy="414" r="18" fill="#d6d9fd"/><rect x="648" y="396" width="36" height="36" fill="#ffffff"/><circle cx="657" cy="405" r="9" fill="#f7f8ff"/><circle cx="675" cy="405" r="9" fill="#ffd46f"/><circle cx="657" cy="423" r="9" fill="#ffd26b"/><circle cx="675" cy="423" r="9" fill="#ffcf5f"/><rect x="684" y="396" width="36" height="36" fill="#ffffff"/><circle cx="693" cy="405" r="9" fill="#ffeabb"/><circle cx="711" cy="405" r="9" fill="#5f6af8"/><circle cx="693" cy="423" r="9" fill="#ffe9b7"/><circle cx="711" cy="423" r="9" fill="#fffefb"/><rect x="0" y="432" width="36" height="36" fill="#ffffff"/><circle cx="9" cy="441" r="9" fill="#bbbffc"/><circle cx="27" cy="441" r="9" fill="#ffdc8b"/><circle cx="9" cy="459" r="9" fill="#d5d8fd"/><circle cx="27" cy="459" r="9" fill="#fff5df"/><rect x="36" y="432" width="36" height="36" fill="#ffffff"/><circle cx="45" cy="441" r="9" fill="#ffcb53"/><circle cx="63" cy="441" r="9" fill="#fffaed"/><circle cx="45" cy="459" r="9" fill="#ffd980"/><circle cx="63" cy="459" r="9" fill="#e4e6fe"/><circle cx="90" cy="450" r="18" fill="#5c66f8"/><rect x="108" y="432" width="36" height="36" fill="#ffffff"/><circle cx="117" cy="441" r="9" fill="#ffcb54"/><circle cx="135" cy="441" r="9" fill="#fff1d2"/><circle cx="117" cy="459" r="9" fill="#757ef9"/><circle cx="135" cy="459" r="9" fill="#9097fa"/><circle cx="162" cy="450" r="18" fill="#737cf9"/><rect x="180" y="432" width="36" height="36" fill="#ffffff"/><circle cx="189" cy="441" r="9" fill="#ffe3a3"/><circle cx="207" cy="441" r="9" fill="#ffdb87"/><circle cx="189" cy="459" r="9" fill="#fffcf5"/><circle cx="207" cy="459" r="9" fill="#adb3fc"/><rect x="216" y="432" width="36" height="36" fill="#ffffff"/><circle cx="225" cy="441" r="9" fill="#d7dafd"/><circle cx="243" cy="441" r="9" fill="#fffcf4"/><circle cx="225" cy="459" r="9" fill="#bfc3fc"/><circle cx="243" cy="459" r="9" fill="#d0d3fd"/><rect x="252" y="432" width="36" height="36" fill="#ffffff"/><circle cx="261" cy="441" r="9" fill="#ffda85"/><circle cx="279" cy="441" r="9" fill="#717af9"/><circle cx="261" cy="459" r="9" fill="#848cfa"/><circle cx="279" cy="459" r="9" fill="#ffe4a4"/><circle cx="306" cy="450" r="18" fill="#fff4db"/><rect x="324" y="432" width="36" height="36" fill="#ffffff"/><circle cx="333" cy="441" r="9" fill="#ffd572"/><circle cx="351" cy="441" r="9" fill="#ffdd8f"/><circle cx="333" cy="459" r="9" fill="#fffbf2"/><circle cx="351" cy="459" r="9" fill="#959cfb"/><rect x="360" y="432" width="36" height="36" fill="#ffffff"/><circle cx="369" cy="441" r="9" fill="#ffcb53"/><circle cx="387" cy="441" r="9" fill="#fffcf7"/><circle cx="369" cy="459" r="9" fill="#b2b7fc"/><circle cx="387" cy="459" r="9" fill="#9198fa"/><rect x="396" y="432" width="36" height="36" fill="#ffffff"/><circle cx="405" cy="441" r="9" fill="#ffcf5e"/><circle cx="423" cy="441" r="9" fill="#fcfcff"/><circle cx="405" cy="459" r="9" fill="#fafaff"/><circle cx="423" cy="459" r="9" fill="#bcc0fc"/><circle cx="450" cy="450" r="18" fill="#bfc4fc"/><rect x="468" y="432" width="36" height="36" fill="#ffffff"/><circle cx="477" cy="441" r="9" fill="#fff6e0"/><circle cx="495" cy="441" r="9" fill="#5c66f8"/><circle cx="477" cy="459" r="9" fill="#7780f9"/><circle cx="495" cy="459" r="9" fill="#c0c4fc"/><rect x="504" y="432" width="36" height="36" fill="#ffffff"/><circle cx="513" cy="441" r="9" fill="#fff0ce"/><circle cx="531" cy="441" r="9" fill="#ffd26a"/><circle cx="513" cy="459" r="9" fill="#ffecc0"/><circle cx="531" cy="459" r="9" fill="#ffd676"/><rect x="540" y="432" width="36" height="36" fill="#ffffff"/><circle cx="549" cy="441" r="9" fill="#f4f5ff"/><circle cx="567" cy="441" r="9" fill="#8c93fa"/><circle cx="549" cy="459" r="9" fill="#fff7e4"/><circle cx="567" cy="459" r="9" fill="#fff9eb"/><circle cx="594" cy="450" r="18" fill="#5863f8"/><rect x="612" y="432" width="36" height="36" fill="#ffffff"/><circle cx="621" cy="441" r="9" fill="#7b84fa"/><circle cx="639" cy="441" r="9" fill="#fffbf1"/><circle cx="621" cy="459" r="9" fill="#ffd166"/><circle cx="639" cy="459" r="9" fill="#ffdf96"/><rect x="648" y="432" width="36" height="36" fill="#ffffff"/><circle cx="657" cy="441" r="9" fill="#fffcf7"/><circle cx="675" cy="441" r="9" fill="#fff4dc"/><circle cx="657" cy="459" r="9" fill="#e4e6fe"/><circle cx="675" cy="459" r="9" fill="#fffefa"/><circle cx="702" cy="450" r="18" fill="#fafaff"/><rect x="0" y="468" width="36" height="36" fill="#ffffff"/><circle cx="9" cy="477" r="9" fill="#c4c8fd"/><circle cx="27" cy="477" r="9" fill="#ffd471"/><circle cx="9" cy="495" r="9" fill="#ffdb89"/><circle cx="27" cy="495" r="9" fill="#f1f2fe"/><rect x="36" y="468" width="36" height="36" fill="#ffffff"/><circle cx="45" cy="477" r="9" fill="#ffd268"/><circle cx="63" cy="477" r="9" fill="#ffebbb"/><circle cx="45" cy="495" r="9" fill="#fdfdff"/><circle cx="63" cy="495" r="9" fill="#ffe3a1"/><circle cx="90" cy="486" r="18" fill="#c1c5fc"/><circle cx="126" cy="486" r="18" fill="#f3f4fe"/><circle cx="162" cy="486" r="18" fill="#ffe4a4"/><rect x="180" y="468" width="36" height="36" fill="#ffffff"/><circle cx="189" cy="477" r="9" fill="#f8f8ff"/><circle cx="207" cy="477" r="9" fill="#ffe7b0"/><circle cx="189" cy="495" r="9" fill="#ffe5a8"/><circle cx="207" cy="495" r="9" fill="#ffeec6"/><rect x="216" y="468" width="36" height="36" fill="#ffffff"/><circle cx="225" cy="477" r="9" fill="#ffd168"/><circle cx="243" cy="477" r="9" fill="#727cf9"/><circle cx="225" cy="495" r="9" fill="#d2d5fd"/><circle cx="243" cy="495" r="9" fill="#6670f9"/><circle cx="270" cy="486" r="18" fill="#636df9"/><circle cx="306" cy="486" r="18" fill="#fffdf8"/><circle cx="342" cy="486" r="18" fill="#8189fa"/><rect x="360" y="468" width="36" height="36" fill="#ffffff"/><circle cx="369" cy="477" r="9" fill="#6872f9"/><circle cx="387" cy="477" r="9" fill="#c8cbfd"/><circle cx="369" cy="495" r="9" fill="#eaebfe"/><circle cx="387" cy="495" r="9" fill="#fff5de"/><rect x="396" y="468" width="36" height="36" fill="#ffffff"/><circle cx="405" cy="477" r="9" fill="#ffe4a5"/><circle cx="423" cy="477" r="9" fill="#8189fa"/><circle cx="405" cy="495" r="9" fill="#ffd062"/><circle cx="423" cy="495" r="9" fill="#b6bbfc"/><rect x="432" y="468" width="36" height="36" fill="#ffffff"/><circle cx="441" cy="477" r="9" fill="#ffcd58"/><circle cx="459" cy="477" r="9" fill="#a6acfb"/><circle cx="441" cy="495" r="9" fill="#ffd063"/><circle cx="459" cy="495" r="9" fill="#fffffe"/><circle cx="486" cy="486" r="18" fill="#ffd575"/><rect x="504" y="468" width="36" height="36" fill="#ffffff"/><circle cx="513" cy="477" r="9" fill="#b0b5fc"/><circle cx="531" cy="477" r="9" fill="#ffe5a8"/><circle cx="513" cy="495" r="9" fill="#fff5dc"/><circle cx="531" cy="495" r="9" fill="#a3a9fb"/><rect x="540" y="468" width="36" height="36" fill="#ffffff"/><circle cx="549" cy="477" r="9" fill="#ffcd59"/><circle cx="567" cy="477" r="9" fill="#dcdefe"/><circle cx="549" cy="495" r="9" fill="#ffda86"/><circle cx="567" cy="495" r="9" fill="#ffd779"/><circle cx="594" cy="486" r="18" fill="#e0e2fe"/><rect x="612" y="468" width="36" height="36" fill="#ffffff"/><circle cx="621" cy="477" r="9" fill="#ffd36b"/><circle cx="639" cy="477" r="9" fill="#ffe8b2"/><circle cx="621" cy="495" r="9" fill="#fffffd"/><circle cx="639" cy="495" r="9" fill="#ffefc9"/><circle cx="666" cy="486" r="18" fill="#8e95fa"/><rect x="684" y="468" width="36" height="36" fill="#ffffff"/><circle cx="693" cy="477" r="9" fill="#ffda83"/><circle cx="711" cy="477" r="9" fill="#fffcf6"/><circle cx="693" cy="495" r="9" fill="#fff5dd"/><circle cx="711" cy="495" r="9" fill="#7079f9"/><rect x="0" y="504" width="36" height="36" fill="#ffffff"/><circle cx="9" cy="513" r="9" fill="#ffeaba"/><circle cx="27" cy="513" r="9" fill="#ffe29d"/><circle cx="9" cy="531" r="9" fill="#fffbf0"/><circle cx="27" cy="531" r="9" fill="#ffe5a7"/><rect x="36" y="504" width="36" height="36" fill="#ffffff"/><circle cx="45" cy="513" r="9" fill="#ffe29e"/><circle cx="63" cy="513" r="9" fill="#fff7e5"/><circle cx="45" cy="531" r="9" fill="#adb3fc"/><circle cx="63" cy="531" r="9" fill="#747df9"/><rect x="72" y="504" width="36" height="36" fill="#ffffff"/><circle cx="81" cy="513" r="9" fill="#dcdefe"/><circle cx="99" cy="513" r="9" fill="#ffdd8e"/><circle cx="81" cy="531" r="9" fill="#dfe1fe"/><circle cx="99" cy="531" r="9" fill="#ffe097"/><circle cx="126" cy="522" r="18" fill="#6872f9"/><rect x="144" y="504" width="36" height="36" fill="#ffffff"/><circle cx="153" cy="513" r="9" fill="#fff0ce"/><circle cx="171" cy="513" r="9" fill="#fff3d6"/><circle cx="153" cy="531" r="9" fill="#ffe6ad"/><circle cx="171" cy="531" r="9" fill="#a3a9fb"/><rect x="180" y="504" width="36" height="36" fill="#ffffff"/><circle cx="189" cy="513" r="9" fill="#aeb4fc"/><circle cx="207" cy="513" r="9" fill="#ffe097"/><circle cx="189" cy="531" r="9" fill="#a1a7fb"/><circle cx="207" cy="531" r="9" fill="#ffe29f"/><circle cx="234" cy="522" r="18" fill="#ffd87c"/><circle cx="270" cy="522" r="18" fill="#6c76f9"/><circle cx="306" cy="522" r="18" fill="#e5e7fe"/><circle cx="342" cy="522" r="18" fill="#e6e7fe"/><circle cx="378" cy="522" r="18" fill="#c5c9fd"/><rect x="396" y="504" width="36" height="36" fill="#ffffff"/><circle cx="405" cy="513" r="9" fill="#ffce5e"/><circle cx="423" cy="513" r="9" fill="#ffe4a5"/><circle cx="405" cy="531" r="9" fill="#fff0ce"/><circle cx="423" cy="531" r="9" fill="#6e78f9"/><rect x="432" y="504" width="36" height="36" fill="#ffffff"/><circle cx="441" cy="513" r="9" fill="#ffce5b"/><circle cx="459" cy="513" r="9" fill="#848cfa"/><circle cx="441" cy="531" r="9" fill="#fff0cd"/><circle cx="459" cy="531" r="9" fill="#b6bbfc"/><circle cx="486" cy="522" r="18" fill="#b8bdfc"/><rect x="504" y="504" width="36" height="36" fill="#ffffff"/><circle cx="513" cy="513" r="9" fill="#fbfbff"/><circle cx="531" cy="513" r="9" fill="#5e68f8"/><circle cx="513" cy="531" r="9" fill="#ffd87f"/><circle cx="531" cy="531" r="9" fill="#959cfb"/><circle cx="558" cy="522" r="18" fill="#ffe4a5"/><circle cx="594" cy="522" r="18" fill="#fff0cc"/><rect x="612" y="504" width="36" height="36" fill="#ffffff"/><circle cx="621" cy="513" r="9" fill="#ffe5aa"/><circle cx="639" cy="513" r="9" fill="#ffedc3"/><circle cx="621" cy="531" r="9" fill="#6e77f9"/><circle cx="639" cy="531" r="9" fill="#b3b8fc"/><circle cx="666" cy="522" r="18" fill="#c7cbfd"/><rect x="684" y="504" width="36" height="36" fill="#ffffff"/><circle cx="693" cy="513" r="9" fill="#ffe2a0"/><circle cx="711" cy="513" r="9" fill="#a2a8fb"/><circle cx="693" cy="531" r="9" fill="#727bf9"/><circle cx="711" cy="531" r="9" fill="#ffe9b7"/><circle cx="18" cy="558" r="18" fill="#6973f9"/><rect x="36" y="540" width="36" height="36" fill="#ffffff"/><circle cx="45" cy="549" r="9" fill="#ffdf96"/><circle cx="63" cy="549" r="9" fill="#8b93fa"/><circle cx="45" cy="567" r="9" fill="#d3d6fd"/><circle cx="63" cy="567" r="9" fill="#ffe4a5"/><circle cx="90" cy="558" r="18" fill="#8c93fa"/><circle cx="126" cy="558" r="18" fill="#e1e3fe"/><rect x="144" y="540" width="36" height="36" fill="#ffffff"/><circle cx="153" cy="549" r="9" fill="#ffce5c"/><circle cx="171" cy="549" r="9" fill="#fffcf4"/><circle cx="153" cy="567" r="9" fill="#fffefb"/><circle cx="171" cy="567" r="9" fill="#ffdf93"/><rect x="180" y="540" width="36" height="36" fill="#ffffff"/><circle cx="189" cy="549" r="9" fill="#fff7e3"/><circle cx="207" cy="549" r="9" fill="#fafbff"/><circle cx="189" cy="567" r="9" fill="#eff0fe"/><circle cx="207" cy="567" r="9" fill="#ffd678"/><circle cx="234" cy="558" r="18" fill="#a1a7fb"/><rect x="252" y="540" width="36" height="36" fill="#ffffff"/><circle cx="261" cy="549" r="9" fill="#ffd36d"/><circle cx="279" cy="549" r="9" fill="#ffe29f"/><circle cx="261" cy="567" r="9" fill="#ffefca"/><circle cx="279" cy="567" r="9" fill="#7f87fa"/><circle cx="306" cy="558" r="18" fill="#ffe7af"/><rect x="324" y="540" width="36" height="36" fill="#ffffff"/><circle cx="333" cy="549" r="9" fill="#acb2fc"/><circle cx="351" cy="549" r="9" fill="#b5bafc"/><circle cx="333" cy="567" r="9" fill="#6d76f9"/><circle cx="351" cy="567" r="9" fill="#a7adfb"/><rect x="360" y="540" width="36" height="36" fill="#ffffff"/><circle cx="369" cy="549" r="9" fill="#ffcd59"/><circle cx="387" cy="549" r="9" fill="#616cf8"/><circle cx="369" cy="567" r="9" fill="#c6cafd"/><circle cx="387" cy="567" r="9" fill="#ffecbf"/><rect x="396" y="540" width="36" height="36" fill="#ffffff"/><circle cx="405" cy="549" r="9" fill="#8a92fa"/><circle cx="423" cy="549" r="9" fill="#ffdb89"/><circle cx="405" cy="567" r="9" fill="#a8aefb"/><circle cx="423" cy="567" r="9" fill="#ffdc8a"/><circle cx="450" cy="558" r="18" fill="#fff4db"/><rect x="468" y="540" width="36" height="36" fill="#ffffff"/><circle cx="477" cy="549" r="9" fill="#fff5dc"/><circle cx="495" cy="549" r="9" fill="#ffd36d"/><circle cx="477" cy="567" r="9" fill="#a2a8fb"/><circle cx="495" cy="567" r="9" fill="#f8f9ff"/><rect x="504" y="540" width="36" height="36" fill="#ffffff"/><circle cx="513" cy="549" r="9" fill="#dddffe"/><circle cx="531" cy="549" r="9" fill="#ffd063"/><circle cx="513" cy="567" r="9" fill="#ffd471"/><circle cx="531" cy="567" r="9" fill="#f8f8ff"/><rect x="540" y="540" width="36" height="36" fill="#ffffff"/><circle cx="549" cy="549" r="9" fill="#c3c7fd"/><circle cx="567" cy="549" r="9" fill="#838bfa"/><circle cx="549" cy="567" r="9" fill="#606af8"/><circle cx="567" cy="567" r="9" fill="#7d85fa"/><rect x="576" y="540" width="36" height="36" fill="#ffffff"/><circle cx="585" cy="549" r="9" fill="#ffce5c"/><circle cx="603" cy="549" r="9" fill="#6d77f9"/><circle cx="585" cy="567" r="9" fill="#fff3d9"/><circle cx="603" cy="567" r="9" fill="#bbc0fc"/><rect x="612" y="540" width="36" height="36" fill="#ffffff"/><circle cx="621" cy="549" r="9" fill="#fffdfa"/><circle cx="639" cy="549" r="9" fill="#5762f8"/><circle cx="621" cy="567" r="9" fill="#ffe9b7"/><circle cx="639" cy="567" r="9" fill="#aaaffb"/><circle cx="666" cy="558" r="18" fill="#f7f7ff"/><rect x="684" y="540" width="36" height="36" fill="#ffffff"/><circle cx="693" cy="549" r="9" fill="#959cfb"/><circle cx="711" cy="549" r="9" fill="#7780f9"/><circle cx="693" cy="567" r="9" fill="#fff6e1"/><circle cx="711" cy="567" r="9" fill="#b6bbfc"/></g></svg>